<svg width="15" height="19" viewBox="0 0 15 19" fill="none" xmlns="http://www.w3.org/2000/svg">
<path fill-rule="evenodd" clip-rule="evenodd" d="M10.0278 0L11.0833 1.05556H14.7778V3.16667H0V1.05556H3.69444L4.75 0H10.0278ZM7.38894 10.1228L9.62672 7.88506L11.115 9.37339L8.87727 11.6112L11.115 13.8489L9.62672 15.3373L7.38894 13.0995L5.15116 15.3373L3.66283 13.8489L5.90061 11.6112L3.65227 9.37339L5.1406 7.88506L7.38894 10.1228ZM1.05571 16.8889C1.05571 18.0501 2.00571 19.0001 3.16682 19.0001H11.6113C12.7724 19.0001 13.7224 18.0501 13.7224 16.8889V4.22228H1.05571V16.8889ZM11.611 6.33342H3.16658V16.889H11.611V6.33342Z" fill="#D21616"/>
</svg>
