<svg width="21" height="21" viewBox="0 0 21 21" fill="none" xmlns="http://www.w3.org/2000/svg">
<path d="M10.4611 8.96279H20.3365C20.4455 9.57121 20.5 10.1524 20.5 10.7063C20.5 12.6769 20.0868 14.4363 19.2605 15.9845C18.4341 17.5328 17.2559 18.7429 15.7257 19.6146C14.1956 20.4864 12.4408 20.9223 10.4611 20.9223C9.03544 20.9223 7.67785 20.6476 6.38837 20.0982C5.09889 19.5488 3.98649 18.8064 3.05116 17.8711C2.11584 16.9358 1.37348 15.8234 0.824086 14.5339C0.274695 13.2444 0 11.8868 0 10.4611C0 9.03544 0.274695 7.67785 0.824086 6.38837C1.37348 5.09889 2.11584 3.98649 3.05116 3.05116C3.98649 2.11584 5.09889 1.37348 6.38837 0.824086C7.67785 0.274695 9.03544 0 10.4611 0C13.1854 0 15.5237 0.912624 17.4761 2.73787L14.6292 5.47575C13.5123 4.39513 12.1229 3.85482 10.4611 3.85482C9.2897 3.85482 8.20681 4.14994 7.21246 4.7402C6.21811 5.33045 5.43034 6.13184 4.84917 7.14435C4.268 8.15686 3.97741 9.26246 3.97741 10.4611C3.97741 11.6598 4.268 12.7654 4.84917 13.7779C5.43034 14.7904 6.21811 15.5918 7.21246 16.1821C8.20681 16.7723 9.2897 17.0674 10.4611 17.0674C11.2512 17.0674 11.9776 16.9585 12.6405 16.7405C13.3034 16.5226 13.8483 16.2502 14.2751 15.9233C14.7019 15.5963 15.0742 15.224 15.392 14.8063C15.7099 14.3886 15.9437 13.9936 16.0935 13.6213C16.2434 13.2489 16.3455 12.8948 16.4 12.5588H10.4611V8.96279Z" fill="#FAFAFA"/>
</svg>
