<svg width="25" height="19" viewBox="0 0 25 19" fill="none" xmlns="http://www.w3.org/2000/svg">
<path d="M2.32099 5.85656C2.62689 6.07242 3.54899 6.71352 5.08732 7.77953C6.6257 8.84555 7.8042 9.66635 8.62288 10.242C8.71283 10.3051 8.90392 10.4423 9.19625 10.6537C9.48863 10.8652 9.73158 11.0362 9.92489 11.1666C10.1183 11.2969 10.3522 11.4432 10.6267 11.6051C10.9011 11.7668 11.1598 11.8885 11.4027 11.969C11.6457 12.0502 11.8706 12.0904 12.0774 12.0904H12.091H12.1046C12.3115 12.0904 12.5365 12.0502 12.7794 11.969C13.0222 11.8885 13.2811 11.7667 13.5553 11.6051C13.8296 11.443 14.0635 11.2969 14.257 11.1666C14.4504 11.0362 14.6932 10.8652 14.9856 10.6537C15.2779 10.4421 15.4693 10.3051 15.5592 10.242C16.3867 9.66635 18.492 8.2044 21.8745 5.85628C22.5312 5.39766 23.0799 4.84428 23.5206 4.19652C23.9617 3.54903 24.182 2.86979 24.182 2.15916C24.182 1.56532 23.9682 1.05699 23.5408 0.634202C23.1135 0.211322 22.6074 0 22.0228 0H2.15902C1.46635 0 0.933294 0.233867 0.559948 0.701602C0.186649 1.16943 0 1.75419 0 2.45584C0 3.0226 0.247479 3.63676 0.742202 4.29795C1.23688 4.95919 1.76331 5.47877 2.32099 5.85656Z" fill="#4B6BAD" fill-opacity="0.75"/>
<path d="M22.8324 7.30034C19.8819 9.29733 17.6416 10.8493 16.1124 11.956C15.5996 12.3337 15.1836 12.6285 14.8642 12.8398C14.5447 13.0512 14.1198 13.2671 13.589 13.4874C13.0583 13.7081 12.5637 13.818 12.1048 13.818H12.091H12.0775C11.6187 13.818 11.1238 13.7081 10.5931 13.4874C10.0624 13.2671 9.63728 13.0512 9.31791 12.8398C8.99864 12.6285 8.58252 12.3337 8.06979 11.956C6.85522 11.0654 4.61968 9.51333 1.36307 7.30034C0.850155 6.95871 0.395844 6.56712 0 6.12637V16.8406C0 17.4348 0.211322 17.9428 0.634202 18.3656C1.05699 18.7886 1.56537 19 2.15916 19H22.023C22.6167 19 23.125 18.7886 23.5478 18.3656C23.9708 17.9427 24.182 17.4348 24.182 16.8406V6.12637C23.7951 6.558 23.3455 6.94959 22.8324 7.30034Z" fill="#4B6BAD" fill-opacity="0.75"/>
</svg>
