<svg width="21" height="27" viewBox="0 0 21 27" fill="none" xmlns="http://www.w3.org/2000/svg">
<path fill-rule="evenodd" clip-rule="evenodd" d="M16.7143 9H18C19.4143 9 20.5714 10.1571 20.5714 11.5714V24.4286C20.5714 25.8429 19.4143 27 18 27H2.57143C1.15714 27 0 25.8429 0 24.4286V11.5714C0 10.1571 1.15714 9 2.57143 9H3.85714V6.42857C3.85714 2.88 6.73714 0 10.2857 0C13.8343 0 16.7143 2.88 16.7143 6.42857V9ZM10.2857 2.57143C8.15143 2.57143 6.42857 4.29429 6.42857 6.42857V9H14.1429V6.42857C14.1429 4.29429 12.42 2.57143 10.2857 2.57143ZM2.57143 24.4286V11.5714H18V24.4286H2.57143ZM12.8571 18C12.8571 19.4143 11.7 20.5714 10.2857 20.5714C8.87143 20.5714 7.71429 19.4143 7.71429 18C7.71429 16.5857 8.87143 15.4286 10.2857 15.4286C11.7 15.4286 12.8571 16.5857 12.8571 18Z" fill="#4B6BAD" fill-opacity="0.75"/>
</svg>
